<svg xmlns="http://www.w3.org/2000/svg" xmlns:xlink="http://www.w3.org/1999/xlink" width="152" height="147" viewBox="0 0 152 147">
  <defs>
    <clipPath id="clip-Car_received">
      <rect width="152" height="147"/>
    </clipPath>
  </defs>
  <g id="Car_received" data-name="Car received" clip-path="url(#clip-Car_received)">
    <g id="Group_2" data-name="Group 2" transform="translate(-4 -1)">
      <g id="Group_20" data-name="Group 20">
        <g id="Group_4" data-name="Group 4">
          <path id="Path_12" data-name="Path 12" d="M48,0,94,36,76.056,93.36h-57.7L0,37Z" transform="translate(32 28)" fill="#15918f"/>
          <path id="Line_2" data-name="Line 2" d="M.74.5l36,28" transform="translate(78.76 38)" fill="none"/>
          <path id="Line_3" data-name="Line 3" d="M16.32.95.96,46.57" transform="translate(99.36 64.8)" fill="none"/>
          <path id="Line_6" data-name="Line 6" d="M16.32,46.57.96.95" transform="translate(40.32 64.8)" fill="none"/>
          <path id="Line_7" data-name="Line 7" d="M.96,29.3,39.36.945" transform="translate(40.32 37.44)" fill="none"/>
          <path id="Line_5" data-name="Line 5" d="M45.78,1.06.93,1.44" transform="translate(54.72 109.44)" fill="none"/>
        </g>
        <g id="Group_16" data-name="Group 16" transform="translate(3.88 1.44)">
          <path id="Path_14" data-name="Path 14" d="M0,0V27.36L46.08,61.92l28.8-5.76Z" transform="translate(76.32)" fill="#00d1ce" stroke="#979797" stroke-miterlimit="10" stroke-width="1.44"/>
          <path id="Path_16" data-name="Path 16" d="M47.52,0,18.72,5.76,0,63.36,16.44,89.4Z" transform="translate(103.68 56.16)" fill="none" stroke="#979797" stroke-miterlimit="10" stroke-width="1.44"/>
          <path id="Path_17" data-name="Path 17" d="M89.28,25.92H0L15.84,0h57.6Z" transform="translate(30.24 119.52)" fill="none" stroke="#979797" stroke-miterlimit="10" stroke-width="1.44"/>
          <path id="Path_18" data-name="Path 18" d="M30.24,87.84,46.08,61.92,27.36,5.76,0,0Z" transform="translate(0 57.6)" fill="none" stroke="#979797" stroke-miterlimit="10" stroke-width="1.44"/>
          <path id="Path_19" data-name="Path 19" d="M76.2,0V25.92L27.24,63.36,0,57.56Z" transform="translate(0.12)" fill="none" stroke="#979797" stroke-miterlimit="10" stroke-width="1.44"/>
        </g>
      </g>
    </g>
    <g id="interface_4_" data-name="interface (4)" transform="translate(247.08 49.385) rotate(90)">
      <g id="Group_2383" data-name="Group 2383" transform="translate(0 132)">
        <path id="Path_3382" data-name="Path 3382" d="M37.857,140.216h0l-7.817-7.779a1.5,1.5,0,0,0-2.111,2.121l5.248,5.223H1.5a1.5,1.5,0,0,0,0,2.992h31.68l-5.248,5.223a1.5,1.5,0,0,0,2.111,2.121l7.817-7.779h0A1.5,1.5,0,0,0,37.857,140.216Z" transform="translate(0 -102)" fill="#fff"/>
        <path id="Path_3383" data-name="Path 3383" d="M16.4,46.532v9.563H47.409V22.322H16.4v9.989" fill="none" stroke="#fff" stroke-linecap="round" stroke-linejoin="round" stroke-width="3"/>
      </g>
    </g>
  </g>
</svg>
