<svg xmlns="http://www.w3.org/2000/svg" xmlns:xlink="http://www.w3.org/1999/xlink" width="32" height="32" viewBox="0 0 32 32">
  <defs>
    <clipPath id="clip-Home">
      <rect width="32" height="32"/>
    </clipPath>
  </defs>
  <g id="Home" clip-path="url(#clip-Home)">
    <rect width="32" height="32" fill="#fff"/>
    <path id="home-2" data-name="home" d="M22.65,28.234H16.944a.883.883,0,0,1-.882-.882V18.7a.294.294,0,0,0-.294-.294H12.474a.294.294,0,0,0-.294.294v8.647a.883.883,0,0,1-.882.882H5.592a2.061,2.061,0,0,1-2.059-2.059V15.293H1.474A1.473,1.473,0,0,1,0,13.822a1.491,1.491,0,0,1,.435-1.047L13.51.244a.882.882,0,0,1,1.221,0L27.79,12.761a1.507,1.507,0,0,1,.448,1.061,1.472,1.472,0,0,1-1.47,1.471H24.709V26.175A2.061,2.061,0,0,1,22.65,28.234Zm-4.823-1.765H22.65a.3.3,0,0,0,.294-.294V14.411a.883.883,0,0,1,.882-.882h2.213L14.121,2.1,2.2,13.528H4.415a.883.883,0,0,1,.882.882V26.175a.3.3,0,0,0,.294.294h4.823V18.7a2.061,2.061,0,0,1,2.059-2.059h3.294A2.061,2.061,0,0,1,17.827,18.7Zm0,0" transform="translate(1.996 2.001)"/>
  </g>
</svg>
