<svg xmlns="http://www.w3.org/2000/svg" width="20.661" height="20.252" viewBox="0 0 20.661 20.252">
  <path id="Home" d="M93.919,85.72,90.58,82.793,84.3,77.286a.708.708,0,0,0-.933,0L73.741,85.72a.708.708,0,0,0,.933,1.064l.745-.653V96.655a.708.708,0,0,0,.708.708H91.534a.708.708,0,0,0,.708-.708V86.131l.745.653a.708.708,0,0,0,.933-1.064ZM82.2,95.947V90.119h3.268v5.829H82.2ZM90.826,84.9V95.947H86.879V89.411a.708.708,0,0,0-.708-.708H81.489a.708.708,0,0,0-.708.708v6.536H76.834V84.9s0,0,0-.005l7-6.132,7,6.132S90.826,84.894,90.826,84.9Z" transform="translate(-73.499 -77.11)" fill="#ce0e2d"/>
</svg>
