<svg xmlns="http://www.w3.org/2000/svg" xmlns:xlink="http://www.w3.org/1999/xlink" width="32" height="32" viewBox="0 0 32 32">
  <defs>
    <clipPath id="clip-Product">
      <rect width="32" height="32"/>
    </clipPath>
  </defs>
  <g id="Product" clip-path="url(#clip-Product)">
    <rect width="32" height="32" fill="#fff"/>
    <g id="repair" transform="translate(3.5 5.008)">
      <path id="Path_3403" data-name="Path 3403" d="M337.808,155.148a.468.468,0,1,0,.468.468A.468.468,0,0,0,337.808,155.148Zm0,0" transform="translate(-321.06 -147.881)"/>
      <path id="Path_3404" data-name="Path 3404" d="M156.113,336.84a.468.468,0,1,0,.468.468A.468.468,0,0,0,156.113,336.84Zm0,0" transform="translate(-147.877 -321.061)"/>
      <path id="Path_3405" data-name="Path 3405" d="M23.9,2.881a.468.468,0,0,0-.438.126L21.522,4.965h-.931L19.566,3.9V2.959L21.48,1.016A.468.468,0,0,0,21.3.243,4.688,4.688,0,0,0,15.274,5.9L11.823,9.348,6.074,3.586V2.455a.468.468,0,0,0-.227-.4L2.535.066a.468.468,0,0,0-.572.07L.638,1.461a.469.469,0,0,0-.07.572L2.554,5.346a.468.468,0,0,0,.4.227H4.086l5.749,5.762L6.4,14.773A4.687,4.687,0,0,0,.744,20.8a.468.468,0,0,0,.776.18l1.942-1.957H4.4l1.067,1.067v.936L3.508,22.963a.468.468,0,0,0,.18.776,4.686,4.686,0,0,0,5.3-1.707,4.632,4.632,0,0,0,.724-3.948l2.761-2.761.632.687-.29.29a.469.469,0,1,0,.663.663l.263-.263,5.934,6.445.014.014a2.811,2.811,0,0,0,3.975-3.975l-.015-.014-6.455-5.922.26-.26a.468.468,0,0,0-.663-.662l-.288.288-.688-.632,2.774-2.774A4.687,4.687,0,0,0,24.24,3.188.468.468,0,0,0,23.9,2.881ZM4.612,4.774a.464.464,0,0,0-.331-.133H3.221L1.559,1.865l.808-.808L5.138,2.721V3.78a.468.468,0,0,0,.137.331l5.886,5.9-.663.662Zm11.916,9.138,6.477,5.942a1.874,1.874,0,0,1-2.651,2.65L14.4,16.038Zm-.691-.634-2.071,2.07-.632-.687,2.015-2.015ZM19.8,8.431a3.744,3.744,0,0,1-1.2-.2.469.469,0,0,0-.481.113L8.85,17.621a.468.468,0,0,0-.113.481,3.751,3.751,0,0,1-3.552,4.945,3.837,3.837,0,0,1-.408-.022l1.488-1.476a.468.468,0,0,0,.139-.332V19.891a.468.468,0,0,0-.137-.331L4.924,18.218a.468.468,0,0,0-.331-.137H3.268a.469.469,0,0,0-.333.139L1.459,19.708a3.79,3.79,0,0,1-.022-.408,3.751,3.751,0,0,1,4.945-3.552.468.468,0,0,0,.481-.113l9.272-9.272a.468.468,0,0,0,.113-.481A3.751,3.751,0,0,1,19.8.936a3.828,3.828,0,0,1,.421.023L18.764,2.438a.468.468,0,0,0-.135.329V4.092a.468.468,0,0,0,.131.325l1.294,1.341a.468.468,0,0,0,.337.143h1.325a.468.468,0,0,0,.332-.139l1.476-1.488a3.79,3.79,0,0,1,.022.408A3.752,3.752,0,0,1,19.8,8.431Zm0,0" transform="translate(0 0)"/>
      <path id="Path_3406" data-name="Path 3406" d="M189.924,183.563l-5.862,5.862a.468.468,0,0,0,.663.662l5.862-5.862a.468.468,0,1,0-.663-.662Zm0,0" transform="translate(-174.832 -174.834)"/>
      <path id="Path_3407" data-name="Path 3407" d="M349.64,350.081a.468.468,0,1,0,.662-.664l-4.223-4.209a.468.468,0,0,0-.662.664Zm0,0" transform="translate(-328.628 -328.907)"/>
    </g>
  </g>
</svg>
