<svg xmlns="http://www.w3.org/2000/svg" xmlns:xlink="http://www.w3.org/1999/xlink" width="351" height="185" viewBox="0 0 351 185">
  <defs>
    <clipPath id="clip-Service_done">
      <rect width="351" height="185"/>
    </clipPath>
  </defs>
  <g id="Service_done" data-name="Service done" clip-path="url(#clip-Quality_Inspection)">
    <rect width="351" height="185" fill="#f7f7f7"/>
    <g id="Group_2412" data-name="Group 2412" transform="translate(87.12 18.56)">
      <g id="Group_2" data-name="Group 2" transform="translate(-8)">
        <g id="Group_20" data-name="Group 20" transform="translate(5)">
          <g id="Group_4" data-name="Group 4">
            <path id="Path_12" data-name="Path 12" d="M48,0,94,36,76.056,93.36h-57.7L0,37Z" transform="translate(32 28)" fill="#15918f"/>
            <path id="Line_2" data-name="Line 2" d="M.74.5l36,28" transform="translate(78.76 38)" fill="none"/>
            <path id="Line_3" data-name="Line 3" d="M16.32.95.96,46.57" transform="translate(99.36 64.8)" fill="none"/>
            <path id="Line_6" data-name="Line 6" d="M16.32,46.57.96.95" transform="translate(40.32 64.8)" fill="none"/>
            <path id="Line_7" data-name="Line 7" d="M.96,29.3,39.36.945" transform="translate(40.32 37.44)" fill="none"/>
            <path id="Line_5" data-name="Line 5" d="M45.78,1.06.93,1.44" transform="translate(54.72 109.44)" fill="none"/>
          </g>
          <g id="Group_16" data-name="Group 16" transform="translate(3.88 1.44)">
            <path id="Path_14" data-name="Path 14" d="M0,0V27.36L46.08,61.92l28.8-5.76Z" transform="translate(76.32)" fill="#00d1ce" stroke="#979797" stroke-miterlimit="10" stroke-width="1.44"/>
            <path id="Path_16" data-name="Path 16" d="M47.52,0,18.72,5.76,0,63.36,16.44,89.4Z" transform="translate(103.68 56.16)" fill="#00d1ce" stroke="#979797" stroke-miterlimit="10" stroke-width="1.44"/>
            <path id="Path_17" data-name="Path 17" d="M89.28,25.92H0L15.84,0h57.6Z" transform="translate(30.24 119.52)" fill="none" stroke="#979797" stroke-miterlimit="10" stroke-width="1.44"/>
            <path id="Path_18" data-name="Path 18" d="M30.24,87.84,46.08,61.92,27.36,5.76,0,0Z" transform="translate(0 57.6)" fill="none" stroke="#979797" stroke-miterlimit="10" stroke-width="1.44"/>
            <path id="Path_19" data-name="Path 19" d="M76.2,0V25.92L27.24,63.36,0,57.56Z" transform="translate(0.12)" fill="none" stroke="#979797" stroke-miterlimit="10" stroke-width="1.44"/>
          </g>
        </g>
         <g id="Group_2399" data-name="Group 2399">
      <circle id="Ellipse_167" data-name="Ellipse 167" cx="1" cy="1" r="1" transform="translate(63 80)" fill="#fff"/>
      <circle id="Ellipse_168" data-name="Ellipse 168" cx="1" cy="1" r="1" transform="translate(52 58)" fill="#fff"/>
      <circle id="Ellipse_169" data-name="Ellipse 169" cx="1" cy="1" r="1" transform="translate(81 55)" fill="#fff"/>
      <g id="Group_2397" data-name="Group 2397" transform="translate(-18 27)">
        <path id="Path_3413" data-name="Path 3413" d="M-13325.2,16.684V20.5" transform="translate(86.394 13379.788) rotate(90)" fill="none" stroke="#fff" stroke-linecap="round" stroke-width="2"/>
        <path id="Path_3414" data-name="Path 3414" d="M-13325.2,16.684V20.5" transform="translate(13393 36)" fill="none" stroke="#fff" stroke-linecap="round" stroke-width="2"/>
      </g>
      <g id="Group_2398" data-name="Group 2398">
        <path id="Path_3413-2" data-name="Path 3413" d="M-13325.2,16.684V20.5" transform="translate(86.394 13379.788) rotate(90)" fill="none" stroke="#fff" stroke-linecap="round" stroke-width="2"/>
        <path id="Path_3414-2" data-name="Path 3414" d="M-13325.2,16.684V20.5" transform="translate(13393 36)" fill="none" stroke="#fff" stroke-linecap="round" stroke-width="2"/>
      </g>
      <path id="Path_3415" data-name="Path 3415" d="M-13312,30.957l2.5,2.949,6.86-6.075" transform="translate(13393 36)" fill="none" stroke="#fff" stroke-linecap="round" stroke-linejoin="round" stroke-width="2"/>
      <path id="Path_3416" data-name="Path 3416" d="M-13340,40.444c.107-1.356,0-6.6,0-6.6a3.986,3.986,0,0,1,2.89-3.293c2.583-.635,19.551,0,19.551,0a3.86,3.86,0,0,1,2.874,2.931,54.65,54.65,0,0,1,.405,7.5s.019.972-1.292,1.149a24.584,24.584,0,0,1-3.743,0,1.972,1.972,0,0,1-1.19-1.149c-.361-.916-.231-2.189-1.55-2.394s-10.323,0-10.323,0-1.333.2-1.408,1.093.145,2.422-1.383,2.451-4.056,0-4.056,0S-13340.107,41.8-13340,40.444Z" transform="translate(13393 36)" fill="none" stroke="#fff" stroke-width="2"/>
      <path id="Path_3417" data-name="Path 3417" d="M-13339.272,28.583h2.6s.219-2.832,1.424-3.723a3.874,3.874,0,0,1,2.4-.8h11.887s2.153.215,2.578,1.87a23.763,23.763,0,0,1,.55,2.65h2.285" transform="translate(13393 36)" fill="none" stroke="#fff" stroke-linecap="round" stroke-linejoin="round" stroke-width="2"/>
      <g id="Rectangle_3247" data-name="Rectangle 3247" transform="translate(95 71)" fill="none" stroke="#fff" stroke-width="2">
        <rect width="8" height="19" rx="2" stroke="none"/>
        <rect x="1" y="1" width="6" height="17" rx="1" fill="none"/>
      </g>
      <path id="Path_3418" data-name="Path 3418" d="M-13298,38.677h-6.911l-8.784,7.469a3.108,3.108,0,0,0,0,3.95c1.624,2.077,4.021.625,5,0s4.955-3.95,4.955-3.95" transform="translate(13393 36)" fill="none" stroke="#fff" stroke-linecap="round" stroke-linejoin="round" stroke-width="2"/>
      <path id="Path_3419" data-name="Path 3419" d="M-13298,50h-5.1l-7.812,7.5a6.159,6.159,0,0,1-2.972.831h-18a3.346,3.346,0,0,1-2.627-2.647,2.873,2.873,0,0,1,2.627-3.208c1.044-.1,15.533,0,15.533,0l2.783-2.084" transform="translate(13393 36)" fill="none" stroke="#fff" stroke-linecap="round" stroke-linejoin="round" stroke-width="2"/>
    </g>
      </g>
    </g>
    <g id="Group_7" data-name="Group 7" transform="translate(-52)">
      <g id="Group_6" data-name="Group 6">
        <text id="Order_created" data-name="Order created" transform="translate(170 10)" fill="#00d1ce" font-size="14" font-family="Karbon-Semibold, Karbon" font-weight="600" letter-spacing="0.125em"><tspan x="0" y="0">Order created</tspan></text>
        <text id="Car_received" data-name="Car received" transform="translate(300 84)" fill="#00d1ce" font-size="16" font-family="Karbon-Semibold, Karbon" font-weight="600" letter-spacing="0.125em"><tspan x="0" y="0">Car received</tspan></text>
        <text id="Quality_Inspection" data-name="Quality Inspection" transform="translate(112.5 161)" fill="#000000" font-size="16" font-family="Karbon-Semibold, Karbon" font-weight="600" letter-spacing="0.125em"><tspan x="-33.592" y="0">Quality </tspan><tspan y="0" font-family="LucidaGrande-Bold, Lucida Grande" font-weight="700"></tspan><tspan x="-43.632" y="19">Inspection</tspan></text>
        <text id="Ready_for_Delivery" data-name="Ready for Delivery" transform="translate(92 84)" fill="#000000"  font-size="16" font-family="Karbon-Semibold, Karbon" font-weight="600" letter-spacing="0.125em"><tspan x="-40.144" y="0">Ready for</tspan><tspan y="0" font-family="LucidaGrande-Bold, Lucida Grande" font-weight="700"></tspan><tspan x="-34.464" y="19">Delivery</tspan></text>
        <text id="Service_done-2" data-name="Service done" transform="translate(276 171)" fill="#00d1ce" font-size="16" font-family="Karbon-Semibold, Karbon" font-weight="600" letter-spacing="0.125em"><tspan x="0" y="0">Service done</tspan></text>
      </g>
    </g>
  </g>
</svg>

